Coordinates
version=1
nRows=10
nColumns=33
inDegrees=yes

Units are S.I. units (second, meters, Newtons, ...)
Angles are in degrees.

endheader
time	ground_thorax_rot_x	ground_thorax_rot_y	ground_thorax_rot_z	ground_thorax_tx	ground_thorax_ty	ground_thorax_tz	clav_prot_r	clav_elev_r	scapula_abduction_r	scapula_elevation_r	scapula_upward_rot_r	scapula_winging_r	shoulder_elv_r	plane_of_elev_r	axial_rot_r	elbow_flexion_r	pro_sup_r	wrist_flex_r	wrist_dev_r	clav_prot_l	clav_elev_l	scapula_abduction_l	scapula_elevation_l	scapula_upward_rot_l	scapula_winging_l	shoulder_elv_l	plane_of_elev_l	axial_rot_l	elbow_flexion_l	pro_sup_l	wrist_flex_l	wrist_dev_l
      6.99000000	    -28.54263407	    -25.00536872	     36.96337124	     -8.85504178	    835.80442567	    -43.86412423	     26.61845127	    -45.00000000	     40.25877271	    -45.00000000	    -45.00000000	   1700.44891341	    793.46927180	     24.72037010	    179.99999979	    362.85675620	   -176.94126190	     14.85280304	     16.08126595	      0.80462496	     32.11423273	    -32.97972502	    -45.00000000	    -45.00000000	   4404.74137018	  -4961.30451765	     29.06503387	     64.15234964	   1790.63028987	   -316.13900561	     14.58955197	    -20.24326457
      7.00000000	    -28.06955334	    -25.33814586	     37.75800227	     -4.43519303	    833.89014359	    -43.81006314	     26.83963104	    -45.00000000	     40.36276328	    -45.00000000	    -45.00000000	   1700.63359138	    793.29793691	     24.67191098	    179.99999979	    362.85053573	   -176.28057300	     14.71184262	     15.97639975	      0.80331351	     32.04700615	    -32.87341946	    -45.00000000	    -45.00000000	   4404.56523646	  -4961.32755562	     29.13997824	     64.47251739	   1790.57204405	   -315.82657801	     14.60649056	    -19.95462479
      7.01000000	    -27.59678522	    -25.64940092	     38.52849114	      0.06909563	    831.82575852	    -43.74926752	     26.88390633	    -45.00000000	     40.40949979	    -45.00000000	    -45.00000000	   1700.88440187	    793.19308692	     24.57917277	    179.99999979	    362.89611160	   -175.53201368	     14.55409001	     15.85576822	      0.83392855	     31.97063516	    -32.80423675	    -45.00000000	    -45.00000000	   4404.33573190	  -4961.39820368	     29.14800896	     64.84110905	   1790.57170034	   -315.49788996	     14.60923978	    -19.69194825
      7.02000000	    -27.14462420	    -25.94104561	     39.26527834	      4.64532013	    829.60778235	    -43.67853496	     26.86372272	    -45.00000000	     40.42228880	    -45.00000000	    -45.00000000	   1701.17818922	    793.08510469	     24.48413510	    179.99999979	    362.98968070	   -174.76595561	     14.37942080	     15.72157749	      0.87287842	     31.88748283	    -32.66069926	    -45.00000000	    -45.00000000	   4404.03811462	  -4961.45853108	     29.14790539	     65.24906594	   1790.58630760	   -315.14635931	     14.57894796	    -19.42217485
      7.03000000	    -26.68970692	    -26.22061911	     40.00571251	      9.27865101	    827.23564136	    -43.59477719	     27.15148985	    -45.00000000	     40.51180584	    -45.00000000	    -45.00000000	   1701.38904111	    792.88541734	     24.36849870	    179.99999979	    363.09642186	   -173.97856053	     14.24459819	     15.58205393	      0.88272207	     31.77180503	    -32.50643185	    -45.00000000	    -45.00000000	   4403.80823484	  -4961.57460359	     29.26164558	     65.46578582	   1790.55698183	   -314.80312536	     14.54309506	    -19.16182652
      7.04000000	    -26.21175035	    -26.52508021	     40.72914099	     13.95878701	    824.70925748	    -43.49542120	     27.20017558	    -45.00000000	     40.56079467	    -45.00000000	    -45.00000000	   1701.70245069	    792.75343917	     24.20514016	    179.99999979	    363.19642956	   -173.17894368	     14.09366571	     15.42185736	      0.90187876	     31.67245539	    -32.38951995	    -45.00000000	    -45.00000000	   4403.47429578	  -4961.67979756	     29.17777115	     65.82411883	   1790.51068868	   -314.47840187	     14.47492422	    -18.85546089
      7.05000000	    -25.78645417	    -26.79906476	     41.44550999	     18.66638520	    822.03776892	    -43.37942905	     27.34705733	    -45.00000000	     40.54215118	    -45.00000000	    -45.00000000	   1701.98916526	    792.55827568	     24.06079673	    179.99999979	    363.39250707	   -172.42139980	     13.91652503	     15.27506923	      0.91338758	     31.55265306	    -32.19454155	    -45.00000000	    -45.00000000	   4403.15417594	  -4961.77078995	     29.19913479	     66.08100512	   1790.48762351	   -314.19851974	     14.41437257	    -18.57633764
      7.06000000	    -25.38947063	    -27.04479140	     42.06039987	     23.38655591	    819.23229255	    -43.24693768	     27.38650032	    -45.00000000	     40.54070820	    -45.00000000	    -45.00000000	   1702.28716433	    792.40237559	     23.90276964	    179.99999979	    363.56445168	   -171.76702177	     13.72290493	     15.13608390	      0.94501841	     31.41806973	    -32.02389596	    -45.00000000	    -45.00000000	   4402.74981168	  -4961.89752822	     29.12475926	     66.25161845	   1790.45833595	   -313.96779041	     14.33231196	    -18.26092147
      7.07000000	    -24.86786096	    -27.40887668	     42.81587353	     28.09690903	    816.31282391	    -43.09965520	     27.89724925	    -45.00000000	     40.68824968	    -45.00000000	    -45.00000000	   1702.36926351	    792.12797113	     23.90933669	    179.99999979	    363.87756478	   -171.22457308	     13.50648848	     15.02324301	      0.63681952	     31.24641179	    -31.49867842	    -45.00000000	    -45.00000000	   4402.38675171	  -4961.97433120	     29.26059285	     66.18176715	   1790.42193746	   -313.82216399	     14.26854500	    -17.98816241
      7.08000000	    -24.68143238	    -27.47261849	     43.23696438	     32.77698947	    813.30262850	    -42.94082846	     27.65413458	    -45.00000000	     40.57838810	    -45.00000000	    -45.00000000	   1702.89035234	    792.01907957	     23.51327930	    179.99999979	    364.08553408	   -170.70748657	     13.32331321	     14.83215351	      1.02036754	     31.15760739	    -31.63772479	    -45.00000000	    -45.00000000	   4401.98236437	  -4962.19486091	     29.09161266	     66.35989534	   1790.44538328	   -313.74259760	     14.12916336	    -17.63019313
